<svg width="16" height="16" viewBox="0 0 16 16" fill="none" xmlns="http://www.w3.org/2000/svg">
<path d="M11.9997 8.95955H8.66634V12.2929C8.66634 12.4697 8.5961 12.6393 8.47108 12.7643C8.34605 12.8893 8.17649 12.9596 7.99967 12.9596C7.82286 12.9596 7.65329 12.8893 7.52827 12.7643C7.40325 12.6393 7.33301 12.4697 7.33301 12.2929V8.95955H3.99967C3.82286 8.95955 3.65329 8.88932 3.52827 8.76429C3.40325 8.63927 3.33301 8.4697 3.33301 8.29289C3.33301 8.11608 3.40325 7.94651 3.52827 7.82148C3.65329 7.69646 3.82286 7.62622 3.99967 7.62622H7.33301V4.29289C7.33301 4.11608 7.40325 3.94651 7.52827 3.82148C7.65329 3.69646 7.82286 3.62622 7.99967 3.62622C8.17649 3.62622 8.34605 3.69646 8.47108 3.82148C8.5961 3.94651 8.66634 4.11608 8.66634 4.29289V7.62622H11.9997C12.1765 7.62622 12.3461 7.69646 12.4711 7.82148C12.5961 7.94651 12.6663 8.11608 12.6663 8.29289C12.6663 8.4697 12.5961 8.63927 12.4711 8.76429C12.3461 8.88932 12.1765 8.95955 11.9997 8.95955Z" fill="black"/>
</svg>
