<svg xmlns="http://www.w3.org/2000/svg" viewBox="0 0 32 32" width="32" height="32">
  <circle cx="16" cy="16" r="16" fill="#F3BA2F"/>
  <path fill="#fff" d="M16 6l2.4 2.4-5.6 5.6-2.4-2.4L16 6zm-4.8 4.8l2.4 2.4-2.8 2.8-2.4-2.4 2.8-2.8zm9.6 0l2.8 2.8-2.4 2.4-2.8-2.8 2.4-2.4zM16 11.6l2.4 2.4-2.4 2.4-2.4-2.4 2.4-2.4zm-8.8 2.8l2.4 2.4L7.2 19.2l-2.4-2.4 2.4-2.4zm17.6 0l2.4 2.4-2.4 2.4-2.4-2.4 2.4-2.4zm-8.8 2.8l2.4 2.4L16 22l-2.4-2.4 2.4-2.4zm-4.8 2l5.6 5.6L16 26l-5.6-5.6-2.4 2.4 2.4-2.4zm9.6 0l2.4 2.4-2.4 2.4-5.6-5.6 5.6 5.6z"/>
</svg>
