<svg width="16" height="16" viewBox="0 0 16 16" fill="none" xmlns="http://www.w3.org/2000/svg">
<path fill-rule="evenodd" clip-rule="evenodd" d="M10.4711 8.72313C10.4711 10.089 9.3639 11.1962 7.99803 11.1962C6.63216 11.1962 5.5249 10.089 5.5249 8.72313C5.5249 7.35726 6.63216 6.25 7.99803 6.25C9.3639 6.25 10.4711 7.35726 10.4711 8.72313ZM9.05795 8.72313C9.05795 9.3085 8.58341 9.78306 7.99803 9.78306C7.41266 9.78306 6.93812 9.3085 6.93812 8.72313C6.93812 8.13776 7.41266 7.66321 7.99803 7.66321C8.58341 7.66321 9.05795 8.13776 9.05795 8.72313Z" fill="#535963"/>
<path fill-rule="evenodd" clip-rule="evenodd" d="M11.0219 2.96747L11.8846 4.6418H14.3524C14.7427 4.6418 15.0591 4.95817 15.0591 5.34842L15.059 13.1514C15.059 13.5417 14.7425 13.858 14.3523 13.858H1.64801C1.25776 13.858 0.9414 13.5417 0.941406 13.1514L0.941541 5.27767C0.941548 4.87945 1.27046 4.55989 1.66851 4.57136L4.11182 4.6418L4.81139 3.01232C4.92284 2.75274 5.17819 2.58447 5.46069 2.58447H10.3937C10.6583 2.58447 10.9007 2.73227 11.0219 2.96747ZM10.6282 5.28903C10.8705 5.75942 11.3553 6.05501 11.8846 6.05501H13.6458L13.6457 12.4448H2.35464L2.35475 6.00495L4.07109 6.05443C4.65068 6.07114 5.18167 5.73212 5.41041 5.19932L5.9263 3.9977H9.96296L10.6282 5.28903Z" fill="#535963"/>
</svg>
