<svg width="16" height="16" viewBox="0 0 16 16" fill="none" xmlns="http://www.w3.org/2000/svg">
<path d="M4.01886 4.75033C3.65067 4.75033 3.35219 5.0488 3.35219 5.41699V13.417C3.35219 13.7706 3.49267 14.1098 3.74272 14.3598C3.99277 14.6098 4.3319 14.7503 4.68553 14.7503H11.3522C11.7058 14.7503 12.045 14.6098 12.295 14.3598C12.5451 14.1098 12.6855 13.7706 12.6855 13.417V5.41699C12.6855 5.0488 12.387 4.75033 12.0189 4.75033H4.01886ZM6.68553 12.0837C6.68553 12.4518 6.38705 12.7503 6.01886 12.7503C5.65067 12.7503 5.35219 12.4518 5.35219 12.0837V7.41699C5.35219 7.0488 5.65067 6.75033 6.01886 6.75033C6.38705 6.75033 6.68553 7.0488 6.68553 7.41699V12.0837ZM10.6855 12.0837C10.6855 12.4518 10.387 12.7503 10.0189 12.7503C9.65067 12.7503 9.35219 12.4518 9.35219 12.0837V7.41699C9.35219 7.0488 9.65067 6.75033 10.0189 6.75033C10.387 6.75033 10.6855 7.0488 10.6855 7.41699V12.0837ZM11.4157 2.75033C11.2145 2.75033 11.024 2.65942 10.8974 2.50296L10.219 1.66436C10.0924 1.5079 9.90193 1.41699 9.70068 1.41699H6.33704C6.13579 1.41699 5.94532 1.5079 5.81874 1.66436L5.14031 2.50296C5.01374 2.65942 4.82326 2.75033 4.62202 2.75033H2.68553C2.31734 2.75033 2.01886 3.0488 2.01886 3.41699C2.01886 3.78518 2.31734 4.08366 2.68553 4.08366H13.3522C13.7204 4.08366 14.0189 3.78518 14.0189 3.41699C14.0189 3.0488 13.7204 2.75033 13.3522 2.75033H11.4157Z" fill="#FC5457"/>
</svg>
