<svg width="16" height="16" viewBox="0 0 16 16" fill="none" xmlns="http://www.w3.org/2000/svg">
<path fill-rule="evenodd" clip-rule="evenodd" d="M10.7178 1.80464C10.9782 1.54429 11.4003 1.54429 11.6606 1.80464L14.1954 4.33945C14.4558 4.59979 14.4558 5.02191 14.1954 5.28225L5.00638 14.4713C4.88135 14.5963 4.71178 14.6665 4.53497 14.6665H2.00016C1.63197 14.6665 1.3335 14.3681 1.3335 13.9999V11.4651C1.3335 11.2883 1.40374 11.1187 1.52876 10.9937L10.7178 1.80464ZM11.8019 5.79014L12.7812 4.81085L11.1892 3.21885L10.2099 4.19815L11.8019 5.79014ZM9.2671 5.14095L10.8591 6.73293L4.25883 13.3332H2.66683V11.7413L9.2671 5.14095Z" fill="#535963"/>
</svg>
