<svg width="20" height="20" viewBox="0 0 20 20" fill="none" xmlns="http://www.w3.org/2000/svg">
<rect width="20" height="20" rx="3.33" fill="#E7E7E7"/>
<path d="M10.0003 8C10.5307 8 11.0394 8.21071 11.4145 8.58579C11.7896 8.96086 12.0003 9.46957 12.0003 10C12.0003 10.5304 11.7896 11.0391 11.4145 11.4142C11.0394 11.7893 10.5307 12 10.0003 12C9.46983 12 8.96112 11.7893 8.58605 11.4142C8.21098 11.0391 8.00026 10.5304 8.00026 10C8.00026 9.46957 8.21098 8.96086 8.58605 8.58579C8.96112 8.21071 9.46983 8 10.0003 8ZM10.0003 5C13.3336 5 16.1803 7.07333 17.3336 10C16.1803 12.9267 13.3336 15 10.0003 15C6.66693 15 3.82026 12.9267 2.66693 10C3.82026 7.07333 6.66693 5 10.0003 5ZM4.12026 10C4.6591 11.1002 5.4958 12.0272 6.53525 12.6755C7.5747 13.3238 8.7752 13.6675 10.0003 13.6675C11.2253 13.6675 12.4258 13.3238 13.4653 12.6755C14.5047 12.0272 15.3414 11.1002 15.8803 10C15.3414 8.8998 14.5047 7.97283 13.4653 7.3245C12.4258 6.67616 11.2253 6.33245 10.0003 6.33245C8.7752 6.33245 7.5747 6.67616 6.53525 7.3245C5.4958 7.97283 4.6591 8.8998 4.12026 10Z" fill="black"/>
</svg>
