<svg width="20" height="14" viewBox="0 0 20 14" fill="none" xmlns="http://www.w3.org/2000/svg">
<path d="M0 1C0 0.447715 0.447715 0 1 0H19C19.5523 0 20 0.447715 20 1C20 1.55228 19.5523 2 19 2H1C0.447715 2 0 1.55228 0 1Z" fill="#19191A"/>
<path d="M2.5 7C2.5 6.44772 2.94772 6 3.5 6H16.5C17.0523 6 17.5 6.44772 17.5 7C17.5 7.55228 17.0523 8 16.5 8H3.5C2.94772 8 2.5 7.55228 2.5 7Z" fill="#19191A"/>
<path d="M7 12C6.44772 12 6 12.4477 6 13C6 13.5523 6.44772 14 7 14H13C13.5523 14 14 13.5523 14 13C14 12.4477 13.5523 12 13 12H7Z" fill="#19191A"/>
</svg>
