<svg width="16" height="16" viewBox="0 0 16 16" fill="none" xmlns="http://www.w3.org/2000/svg">
<path fill-rule="evenodd" clip-rule="evenodd" d="M7.83348 2.86898C7.29562 2.86898 6.85962 3.30501 6.85962 3.84288V5.99952H8.55842C8.92662 5.99952 9.22508 6.298 9.22508 6.66619C9.22508 7.03437 8.92662 7.33284 8.55842 7.33284H6.85962V11.3208C6.85962 12.5951 5.82661 13.628 4.55236 13.628C3.2781 13.628 2.24512 12.5951 2.24512 11.3208C2.24512 10.9526 2.5436 10.6542 2.91178 10.6542C3.27998 10.6542 3.57845 10.9526 3.57845 11.3208C3.57845 11.8587 4.01448 12.2947 4.55236 12.2947C5.09023 12.2947 5.52626 11.8587 5.52626 11.3208V7.33284H3.82745C3.45926 7.33284 3.16078 7.03437 3.16078 6.66619C3.16078 6.298 3.45926 5.99952 3.82745 5.99952H5.52626V3.84288C5.52626 2.56863 6.55924 1.53564 7.83348 1.53564C9.10775 1.53564 10.1408 2.56863 10.1408 3.84288C10.1408 4.21107 9.84228 4.50955 9.47408 4.50955C9.10588 4.50955 8.80742 4.21107 8.80742 3.84288C8.80742 3.30501 8.37135 2.86898 7.83348 2.86898Z" fill="#535963"/>
<path fill-rule="evenodd" clip-rule="evenodd" d="M9.03043 8.87694C9.29077 8.61654 9.7129 8.61654 9.97323 8.87694L11.268 10.1717L12.5628 8.87694C12.8232 8.61654 13.2453 8.61654 13.5056 8.87694C13.766 9.13727 13.766 9.55934 13.5056 9.81974L12.2108 11.1145L13.5596 12.4633C13.82 12.7236 13.82 13.1457 13.5596 13.4061C13.2993 13.6664 12.8772 13.6664 12.6168 13.4061L11.268 12.0573L9.9193 13.4061C9.65897 13.6664 9.23683 13.6664 8.9765 13.4061C8.71617 13.1457 8.71617 12.7236 8.9765 12.4633L10.3252 11.1145L9.03043 9.81974C8.7701 9.55934 8.7701 9.13727 9.03043 8.87694Z" fill="#535963"/>
</svg>
