<svg width="14" height="14" viewBox="0 0 14 14" fill="none" xmlns="http://www.w3.org/2000/svg">
<path d="M7.00033 9.91699C7.1656 9.91699 7.30424 9.86099 7.41624 9.74899C7.52824 9.63699 7.58405 9.49855 7.58366 9.33366V7.00033C7.58366 6.83505 7.52766 6.6966 7.41566 6.58499C7.30366 6.47338 7.16521 6.41738 7.00033 6.41699C6.83544 6.4166 6.69699 6.4726 6.58499 6.58499C6.47299 6.69738 6.41699 6.83583 6.41699 7.00033V9.33366C6.41699 9.49894 6.47299 9.63758 6.58499 9.74957C6.69699 9.86158 6.83544 9.91738 7.00033 9.91699ZM7.00033 5.25033C7.1656 5.25033 7.30424 5.19433 7.41624 5.08233C7.52824 4.97033 7.58405 4.83188 7.58366 4.66699C7.58327 4.5021 7.52727 4.36366 7.41566 4.25166C7.30405 4.13966 7.1656 4.08366 7.00033 4.08366C6.83505 4.08366 6.6966 4.13966 6.58499 4.25166C6.47338 4.36366 6.41738 4.5021 6.41699 4.66699C6.4166 4.83188 6.4726 4.97052 6.58499 5.08291C6.69738 5.1953 6.83583 5.2511 7.00033 5.25033ZM7.00033 12.8337C6.19338 12.8337 5.43505 12.6804 4.72533 12.374C4.0156 12.0675 3.39824 11.652 2.87324 11.1274C2.34824 10.6028 1.93272 9.98544 1.62666 9.27532C1.3206 8.56521 1.16738 7.80688 1.16699 7.00033C1.1666 6.19377 1.31983 5.43544 1.62666 4.72533C1.93349 4.01521 2.34902 3.39785 2.87324 2.87324C3.39747 2.34863 4.01483 1.9331 4.72533 1.62666C5.43583 1.32021 6.19416 1.16699 7.00033 1.16699C7.80649 1.16699 8.56483 1.32021 9.27533 1.62666C9.98583 1.9331 10.6032 2.34863 11.1274 2.87324C11.6516 3.39785 12.0674 4.01521 12.3746 4.72533C12.6818 5.43544 12.8348 6.19377 12.8337 7.00033C12.8325 7.80688 12.6793 8.56521 12.374 9.27532C12.0687 9.98544 11.6532 10.6028 11.1274 11.1274C10.6016 11.652 9.98427 12.0677 9.27533 12.3746C8.56638 12.6814 7.80805 12.8344 7.00033 12.8337ZM7.00033 11.667C8.3031 11.667 9.40658 11.2149 10.3107 10.3107C11.2149 9.40658 11.667 8.3031 11.667 7.00033C11.667 5.69755 11.2149 4.59408 10.3107 3.68991C9.40658 2.78574 8.3031 2.33366 7.00033 2.33366C5.69755 2.33366 4.59408 2.78574 3.68991 3.68991C2.78574 4.59408 2.33366 5.69755 2.33366 7.00033C2.33366 8.3031 2.78574 9.40658 3.68991 10.3107C4.59408 11.2149 5.69755 11.667 7.00033 11.667Z" fill="#000000"/>
</svg>
