<svg width="16" height="15" viewBox="0 0 16 15" fill="none" xmlns="http://www.w3.org/2000/svg">
<path d="M13.835 1.29639H8.68015C8.53523 1.29639 8.41943 1.46155 8.41943 1.66405V2.40127C8.41943 2.6044 8.53714 2.76893 8.68015 2.76893H13.835C13.9768 2.76956 14.0945 2.6044 14.0945 2.40127V1.66405C14.0945 1.46092 13.9768 1.29639 13.835 1.29639ZM13.835 4.36627H8.68015C8.53523 4.36627 8.41943 4.53206 8.41943 4.73519V5.47305C8.41943 5.67682 8.53714 5.84071 8.68015 5.84071H13.835C13.9774 5.84071 14.0945 5.67682 14.0945 5.47305V4.73393C14.0945 4.5308 13.9768 4.36627 13.835 4.36627ZM13.835 8.66114H8.68015C8.53523 8.66114 8.41943 8.82505 8.41943 9.02944V9.766C8.41943 9.96793 8.53714 10.1343 8.68015 10.1343H13.835C13.9774 10.1343 14.0945 9.96793 14.0945 9.766V9.02944C14.0945 8.82505 13.9768 8.66114 13.835 8.66114ZM13.835 11.8192H8.68015C8.53523 11.8192 8.41943 11.9851 8.41943 12.1881V12.9247C8.41943 13.1304 8.53714 13.2943 8.68015 13.2943H13.835C13.9774 13.2943 14.0945 13.1304 14.0945 12.9247V12.1881C14.0945 11.9851 13.9768 11.8192 13.835 11.8192Z" fill="#535963"/>
<mask id="mask0_1781_8280" style="mask-type:luminance" maskUnits="userSpaceOnUse" x="1" y="0" width="6" height="7">
<path d="M5.87438 0.9375H2.375C1.85723 0.9375 1.4375 1.35723 1.4375 1.875V5.37187C1.4375 5.88964 1.85723 6.30937 2.375 6.30937H5.87438C6.39215 6.30937 6.81188 5.88964 6.81188 5.37187V1.875C6.81188 1.35723 6.39215 0.9375 5.87438 0.9375Z" fill="white"/>
</mask>
<g mask="url(#mask0_1781_8280)">
<path d="M5.87438 0.9375H2.375C1.85723 0.9375 1.4375 1.35723 1.4375 1.875V5.37187C1.4375 5.88964 1.85723 6.30937 2.375 6.30937H5.87438C6.39215 6.30937 6.81188 5.88964 6.81188 5.37187V1.875C6.81188 1.35723 6.39215 0.9375 5.87438 0.9375Z" stroke="#535963" stroke-width="2.49375"/>
</g>
<mask id="mask1_1781_8280" style="mask-type:luminance" maskUnits="userSpaceOnUse" x="1" y="8" width="6" height="6">
<path d="M5.87438 8.22168H2.375C1.85723 8.22168 1.4375 8.64141 1.4375 9.15918V12.6561C1.4375 13.1738 1.85723 13.5936 2.375 13.5936H5.87438C6.39215 13.5936 6.81188 13.1738 6.81188 12.6561V9.15918C6.81188 8.64141 6.39215 8.22168 5.87438 8.22168Z" fill="white"/>
</mask>
<g mask="url(#mask1_1781_8280)">
<path d="M5.87438 8.22168H2.375C1.85723 8.22168 1.4375 8.64141 1.4375 9.15918V12.6561C1.4375 13.1738 1.85723 13.5936 2.375 13.5936H5.87438C6.39215 13.5936 6.81188 13.1738 6.81188 12.6561V9.15918C6.81188 8.64141 6.39215 8.22168 5.87438 8.22168Z" stroke="#535963" stroke-width="2.49375"/>
</g>
</svg>
