<svg width="17" height="17" viewBox="0 0 17 17" fill="none" xmlns="http://www.w3.org/2000/svg">
<rect width="17" height="17" rx="8.5" fill="#A7A7A7"/>
<path d="M11.8336 9.05545C7.52367 9.05545 9.12765 9.05545 5.16688 9.05545C5.01954 9.05545 4.87823 8.99692 4.77405 8.89273C4.66986 8.78854 4.61133 8.64723 4.61133 8.49989C4.61133 8.35255 4.66986 8.21124 4.77405 8.10705C4.87823 8.00287 5.01954 7.94434 5.16688 7.94434C9.12765 7.94434 7.52367 7.94434 11.8336 7.94434C11.9809 7.94434 12.1222 8.00287 12.2264 8.10705C12.3306 8.21124 12.3891 8.35255 12.3891 8.49989C12.3891 8.64723 12.3306 8.78854 12.2264 8.89273C12.1222 8.99692 11.9809 9.05545 11.8336 9.05545Z" fill="white"/>
</svg>
