<svg width="17" height="17" viewBox="0 0 17 17" fill="none" xmlns="http://www.w3.org/2000/svg">
<rect width="17" height="17" rx="8.5" fill="#A7A7A7"/>
<path d="M11.8335 9.05577H9.05577V11.8335C9.05577 11.9809 8.99724 12.1222 8.89305 12.2264C8.78887 12.3306 8.64756 12.3891 8.50022 12.3891C8.35287 12.3891 8.21157 12.3306 8.10738 12.2264C8.00319 12.1222 7.94466 11.9809 7.94466 11.8335V9.05577H5.16688C5.01954 9.05577 4.87823 8.99724 4.77405 8.89305C4.66986 8.78887 4.61133 8.64756 4.61133 8.50022C4.61133 8.35287 4.66986 8.21157 4.77405 8.10738C4.87823 8.00319 5.01954 7.94466 5.16688 7.94466H7.94466V5.16688C7.94466 5.01954 8.00319 4.87823 8.10738 4.77405C8.21157 4.66986 8.35287 4.61133 8.50022 4.61133C8.64756 4.61133 8.78887 4.66986 8.89305 4.77405C8.99724 4.87823 9.05577 5.01954 9.05577 5.16688V7.94466H11.8335C11.9809 7.94466 12.1222 8.00319 12.2264 8.10738C12.3306 8.21157 12.3891 8.35287 12.3891 8.50022C12.3891 8.64756 12.3306 8.78887 12.2264 8.89305C12.1222 8.99724 11.9809 9.05577 11.8335 9.05577Z" fill="white"/>
</svg>
