<svg width="17" height="17" viewBox="0 0 17 17" fill="none" xmlns="http://www.w3.org/2000/svg">
<path d="M15.6252 15.6252L12.006 12.006M12.006 12.006C12.6251 11.3869 13.1162 10.652 13.4512 9.84313C13.7862 9.03427 13.9587 8.16734 13.9587 7.29184C13.9587 6.41634 13.7862 5.54941 13.4512 4.74055C13.1162 3.93169 12.6251 3.19674 12.006 2.57767C11.3869 1.9586 10.652 1.46752 9.84313 1.13248C9.03427 0.797443 8.16734 0.625 7.29184 0.625C6.41634 0.625 5.54941 0.797443 4.74055 1.13248C3.93169 1.46752 3.19674 1.9586 2.57767 2.57767C1.3274 3.82795 0.625 5.52368 0.625 7.29184C0.625 9.05999 1.3274 10.7557 2.57767 12.006C3.82795 13.2563 5.52368 13.9587 7.29184 13.9587C9.05999 13.9587 10.7557 13.2563 12.006 12.006Z" stroke="#A7A7A7" stroke-width="1.25" stroke-linecap="round" stroke-linejoin="round"/>
</svg>
