<svg width="20" height="20" viewBox="0 0 20 20" fill="none" xmlns="http://www.w3.org/2000/svg">
<rect width="20" height="20" rx="3" fill="#E7E7E7"/>
<path d="M13.6143 12.4487C13.1564 12.4487 12.7468 12.6294 12.4335 12.9126L8.13837 10.4126C8.16849 10.274 8.19258 10.1355 8.19258 9.99089C8.19258 9.84632 8.16849 9.70776 8.13837 9.56921L12.3854 7.0933C12.7107 7.39451 13.1384 7.58125 13.6143 7.58125C14.6143 7.58125 15.4215 6.77403 15.4215 5.77403C15.4215 4.77403 14.6143 3.9668 13.6143 3.9668C12.6143 3.9668 11.807 4.77403 11.807 5.77403C11.807 5.9186 11.8311 6.05716 11.8613 6.19571L7.61427 8.67162C7.28897 8.37041 6.86126 8.18366 6.38535 8.18366C5.38535 8.18366 4.57812 8.99089 4.57812 9.99089C4.57812 10.9909 5.38535 11.7981 6.38535 11.7981C6.86126 11.7981 7.28897 11.6114 7.61427 11.3102L11.9034 13.8162C11.8733 13.9427 11.8552 14.0752 11.8552 14.2078C11.8552 15.1776 12.6444 15.9668 13.6143 15.9668C14.5841 15.9668 15.3733 15.1776 15.3733 14.2078C15.3733 13.2379 14.5841 12.4487 13.6143 12.4487Z" fill="black"/>
</svg>
