<svg width="16" height="16" viewBox="0 0 16 16" fill="none" xmlns="http://www.w3.org/2000/svg">
<path d="M2.5 4.1C2.5 3.53995 2.5 3.25992 2.60899 3.04601C2.70487 2.85785 2.85785 2.70487 3.04601 2.60899C3.25992 2.5 3.53995 2.5 4.1 2.5H5.9C6.46005 2.5 6.74008 2.5 6.95399 2.60899C7.14215 2.70487 7.29513 2.85785 7.39101 3.04601C7.5 3.25992 7.5 3.53995 7.5 4.1V11.7333C7.5 12.2934 7.5 12.5734 7.39101 12.7873C7.29513 12.9755 7.14215 13.1285 6.95399 13.2243C6.74008 13.3333 6.46005 13.3333 5.9 13.3333H4.1C3.53995 13.3333 3.25992 13.3333 3.04601 13.2243C2.85785 13.1285 2.70487 12.9755 2.60899 12.7873C2.5 12.5734 2.5 12.2934 2.5 11.7333V4.1Z" fill="#FC5457"/>
<path fill-rule="evenodd" clip-rule="evenodd" d="M8.5 3.3C8.5 3.01997 8.5 2.87996 8.5545 2.773C8.60243 2.67892 8.67892 2.60243 8.773 2.5545C8.87996 2.5 9.01997 2.5 9.3 2.5H12.7C12.98 2.5 13.12 2.5 13.227 2.5545C13.3211 2.60243 13.3976 2.67892 13.4455 2.773C13.5 2.87996 13.5 3.01997 13.5 3.3V4.7C13.5 4.98003 13.5 5.12004 13.4455 5.227C13.3976 5.32108 13.3211 5.39757 13.227 5.4455C13.12 5.5 12.98 5.5 12.7 5.5H9.3C9.01997 5.5 8.87996 5.5 8.773 5.4455C8.67892 5.39757 8.60243 5.32108 8.5545 5.227C8.5 5.12004 8.5 4.98003 8.5 4.7V3.3ZM8.5 7.3C8.5 7.01997 8.5 6.87996 8.5545 6.773C8.60243 6.67892 8.67892 6.60243 8.773 6.5545C8.87996 6.5 9.01997 6.5 9.3 6.5H12.7C12.98 6.5 13.12 6.5 13.227 6.5545C13.3211 6.60243 13.3976 6.67892 13.4455 6.773C13.5 6.87996 13.5 7.01997 13.5 7.3V8.7C13.5 8.98003 13.5 9.12004 13.4455 9.227C13.3976 9.32108 13.3211 9.39757 13.227 9.4455C13.12 9.5 12.98 9.5 12.7 9.5H9.3C9.01997 9.5 8.87996 9.5 8.773 9.4455C8.67892 9.39757 8.60243 9.32108 8.5545 9.227C8.5 9.12004 8.5 8.98003 8.5 8.7V7.3ZM13.5 11.3C13.5 11.02 13.5 10.88 13.4455 10.773C13.3976 10.6789 13.3211 10.6024 13.227 10.5545C13.12 10.5 12.98 10.5 12.7 10.5H9.3C9.01997 10.5 8.87996 10.5 8.773 10.5545C8.67892 10.6024 8.60243 10.6789 8.5545 10.773C8.5 10.88 8.5 11.02 8.5 11.3V12.7C8.5 12.98 8.5 13.12 8.5545 13.227C8.60243 13.3211 8.67892 13.3976 8.773 13.4455C8.87996 13.5 9.01997 13.5 9.3 13.5H12.7C12.98 13.5 13.12 13.5 13.227 13.4455C13.3211 13.3976 13.3976 13.3211 13.4455 13.227C13.5 13.12 13.5 12.98 13.5 12.7V11.3Z" fill="#C7C7C7"/>
</svg>
