<svg width="20" height="20" viewBox="0 0 20 20" fill="none" xmlns="http://www.w3.org/2000/svg">
<g clip-path="url(#clip0_4151_55212)">
<path d="M4.27059 0H12.2252C12.3513 0.057398 12.4748 0.0375029 12.5934 0.139887C12.7314 0.259084 12.8552 0.387716 12.9842 0.516241L13.5412 1.0682L14.8679 2.39969C15.1198 2.65685 15.3779 2.90079 15.6308 3.15292L16.3817 3.91387C16.5716 4.10467 16.7654 4.29437 16.9527 4.48758C17.0039 4.54041 17.0799 4.63813 17.1062 4.7066C17.1392 4.79246 17.1571 4.93385 17.157 5.026C17.1568 5.38544 17.1522 5.7457 17.1517 6.10517C17.1553 6.96075 17.153 7.81636 17.1446 8.67191L17.1434 13.7402L17.1429 16.9678C17.1425 17.4625 17.148 17.96 17.1387 18.4546C17.1267 19.0915 16.6119 19.676 16.0358 19.8962C15.9413 19.9322 15.7211 19.959 15.6553 20H4.34769C4.25439 19.9559 4.09664 19.9521 3.99189 19.9133C3.3258 19.6672 2.84283 19.0812 2.83486 18.3544C2.8312 18.02 2.83241 17.6911 2.83281 17.3591L2.83593 15.4924L2.83534 10.4009L2.83396 4.45248L2.82926 2.51263C2.82896 2.2162 2.82789 1.91925 2.82895 1.62374C2.82927 0.950408 3.31666 0.33422 3.93421 0.0988691C4.03492 0.0604893 4.18499 0.0446665 4.27059 0Z" fill="black"/>
<path d="M4.47504 1.15555C4.59938 1.14257 5.04927 1.15338 5.19223 1.15359L6.69521 1.15472L11.6189 1.15335L11.6183 3.81425C11.6186 4.28404 11.7756 4.67362 12.1125 5.00719C12.3398 5.22967 12.6243 5.38492 12.9343 5.45579C13.2103 5.51978 13.738 5.49886 14.0403 5.50025L15.9923 5.49816L15.988 13.5566L15.9868 16.787L15.9866 17.8312C15.9866 18.0037 15.9883 18.1823 15.9842 18.3545C15.9765 18.4559 15.937 18.5488 15.8724 18.6268C15.7693 18.7512 15.677 18.7985 15.5199 18.8161C15.3427 18.8238 15.1379 18.8206 14.9588 18.8217C14.5098 18.8232 14.0608 18.8221 13.6118 18.8184L10.4282 18.8195L6.44265 18.8182L5.29758 18.8209C5.05808 18.8226 4.81561 18.8278 4.57657 18.8222C4.46083 18.8195 4.36771 18.8139 4.26992 18.7477C4.15384 18.6691 4.03541 18.5186 4.02037 18.3778C3.99809 18.1694 4.00566 17.93 4.00704 17.7196C4.00878 17.4063 4.00849 17.0929 4.00616 16.7796L4.00426 12.9832L4.00647 5.63421L4.00433 3.04442C4.0042 2.59265 4.00329 2.14101 4.00726 1.68926C4.00982 1.39888 4.18291 1.19422 4.47504 1.15555Z" fill="white"/>
<path d="M7.83588 4.55262C7.87158 4.55066 7.92045 4.54737 7.95554 4.54955C8.11797 4.55818 8.27006 4.63197 8.37738 4.75421C8.44113 4.82791 8.48478 4.91682 8.50412 5.01233C8.53216 5.15152 8.52663 5.61642 8.52325 5.78014C8.51838 6.01621 8.53697 6.38508 8.51868 6.61323C8.98878 6.62578 9.4819 6.62424 9.95204 6.61905C10.4869 6.61312 10.7765 7.22766 10.4056 7.59327C10.3263 7.67142 10.226 7.72483 10.1169 7.74698C9.98993 7.77353 9.69685 7.75714 9.55288 7.75648L8.52508 7.75565L8.52608 8.69368C8.52752 9.14696 8.59238 9.63731 8.04309 9.78765C7.85294 9.81392 7.67052 9.7652 7.53275 9.62755C7.44898 9.54451 7.38992 9.43983 7.36215 9.32519C7.32863 9.18469 7.34208 8.82974 7.34259 8.66495L7.33991 7.76274C7.01673 7.75691 6.69349 7.7549 6.37026 7.75671C6.21909 7.75789 5.85158 7.77019 5.7195 7.74279C5.6241 7.72296 5.5358 7.6778 5.4639 7.61206C5.13875 7.31469 5.26235 6.72698 5.71851 6.64139C5.89779 6.60776 6.11358 6.6234 6.29902 6.62318L7.33941 6.62275C7.34343 6.29242 7.34406 5.96206 7.34132 5.6317C7.3374 5.1741 7.25556 4.67052 7.83588 4.55262Z" fill="black"/>
<path d="M9.10839 15.4053L11.8155 15.4066L12.5669 15.4042C12.7225 15.4034 12.9155 15.391 13.0658 15.416C13.3195 15.4581 13.5316 15.7204 13.5353 15.9721C13.5383 16.1263 13.4788 16.2751 13.3703 16.3846C13.1927 16.564 12.9878 16.5539 12.7539 16.5543C12.6015 16.5546 12.4486 16.5539 12.2962 16.5536L10.9033 16.5535L8.18907 16.5538L7.4627 16.5583C7.10977 16.562 6.74263 16.6287 6.53798 16.2436C6.37629 15.9392 6.53476 15.4951 6.89093 15.4278C7.08892 15.3904 7.42849 15.4092 7.64714 15.4088L9.10839 15.4053Z" fill="black"/>
<path d="M12.8063 8.27317C13.1621 8.2483 13.5084 8.4656 13.5227 8.84708C13.5307 9.05994 13.5257 9.27284 13.5252 9.48593L13.5248 10.8553L13.5278 12.5052C13.5282 12.789 13.5327 13.074 13.5242 13.3574C13.5151 13.658 13.3161 13.8697 13.0295 13.934C12.8731 13.9509 12.7348 13.9342 12.5989 13.8495C12.4639 13.7655 12.3677 13.6314 12.3313 13.4765C12.306 13.3662 12.3147 12.9494 12.3147 12.8077L12.3148 11.4975L12.3133 9.69003C12.313 9.39486 12.3086 9.09502 12.3156 8.79991C12.3225 8.51139 12.54 8.33067 12.8063 8.27317Z" fill="black"/>
<path d="M9.90856 10.2464C10.1568 10.2225 10.3657 10.3131 10.4995 10.5309C10.5966 10.6891 10.5708 10.8738 10.5745 11.0522C10.5765 11.1527 10.5733 11.2575 10.5727 11.3594L10.5686 12.3519C10.5688 12.5681 10.5705 12.7842 10.5737 13.0004C10.5754 13.1403 10.5795 13.2806 10.5702 13.4201C10.5518 13.6951 10.3627 13.8765 10.0986 13.9339C9.93063 13.9519 9.79938 13.9262 9.65908 13.8303C9.37171 13.6339 9.40431 13.3089 9.40675 13.01C9.40936 12.7779 9.41074 12.5457 9.41093 12.3136L9.40498 11.2932C9.40387 11.1114 9.39607 10.9222 9.40956 10.7413C9.43029 10.4633 9.64727 10.2897 9.90856 10.2464Z" fill="black"/>
<path d="M7.03284 11.6531C7.41045 11.6099 7.72446 11.9059 7.71531 12.2846C7.7095 12.5254 7.71912 12.7709 7.7159 13.0117C7.71415 13.1422 7.72718 13.3042 7.70442 13.4316C7.6876 13.5257 7.65072 13.615 7.59629 13.6936C7.49368 13.8405 7.36526 13.9043 7.19485 13.9346C7.0412 13.9434 6.89976 13.929 6.76804 13.8403C6.63548 13.7493 6.54481 13.6091 6.51625 13.4509C6.49707 13.3432 6.50201 12.99 6.50435 12.8648C6.50752 12.6955 6.48926 12.2967 6.51695 12.1436C6.53231 12.0541 6.56746 11.9691 6.61984 11.8949C6.72527 11.7465 6.8598 11.6824 7.03284 11.6531Z" fill="black"/>
<path d="M12.7844 1.97729C12.8869 2.04159 13.181 2.37036 13.2872 2.47479L14.7132 3.88969C14.8275 4.00366 15.0427 4.22133 15.1694 4.34034C15.17 4.34684 15.1706 4.35333 15.1711 4.35982C14.7799 4.37009 14.3519 4.34517 13.9545 4.35412C13.7068 4.34729 13.4533 4.37043 13.2072 4.34505C13.1158 4.33562 13.0258 4.28301 12.9559 4.22325C12.7272 4.02782 12.7939 3.68263 12.7863 3.40968C12.7731 2.93473 12.7996 2.45263 12.7844 1.97729Z" fill="white"/>
</g>
<defs>
<clipPath id="clip0_4151_55212">
<rect width="20" height="20" fill="white"/>
</clipPath>
</defs>
</svg>
