<svg width="24" height="24" viewBox="0 0 24 24" fill="none" xmlns="http://www.w3.org/2000/svg">
<g clip-path="url(#clip0_4151_55229)">
<path d="M11.9505 4.24622C12.2352 4.23464 12.4703 4.38824 12.5993 4.638C12.8174 5.06017 13.0315 5.48504 13.2459 5.90917L14.2915 7.95855C14.5143 8.39314 14.7409 8.82575 14.9714 9.25633C15.105 9.50724 15.2404 9.75683 15.366 10.0119C15.4927 10.2689 15.4423 10.5454 15.2406 10.7472C15.1436 10.8449 15.0196 10.9112 14.8845 10.9376C14.7585 10.9624 14.2018 10.9551 14.0479 10.9556L12.1113 10.9567L10.1349 10.9572C9.82331 10.9576 9.51004 10.9681 9.1969 10.9515C8.93451 10.9375 8.66694 10.671 8.62388 10.415C8.60617 10.3097 8.61525 10.1394 8.65877 10.0424C8.77111 9.79193 8.91824 9.55462 9.03482 9.30556C9.39211 8.55732 9.78109 7.82649 10.1571 7.08881L10.9596 5.51085C11.1236 5.18256 11.3038 4.78918 11.5071 4.48351C11.6087 4.33071 11.7746 4.27091 11.9505 4.24622ZM10.3874 9.59158C10.5842 9.57773 10.8261 9.58239 11.0258 9.58228L12.0381 9.58295C12.5307 9.58542 13.1101 9.56596 13.5923 9.58493C13.4419 9.2606 12.0607 6.50195 11.9747 6.43945L10.754 8.85906C10.6422 9.07684 10.4995 9.39019 10.3874 9.59158Z" fill="black"/>
<path d="M1.26204 13.8088C1.65073 13.8228 1.75451 14.0104 2.01033 14.2619C2.32805 14.5742 2.64489 14.8887 2.9497 15.2139C3.0174 15.2862 3.0815 15.362 3.15573 15.4277L3.16808 15.4384C3.46453 15.1264 3.77744 14.8247 4.07912 14.5184C4.278 14.3276 4.45853 14.0893 4.68668 13.9333C5.14258 13.6267 5.77647 13.9974 5.75331 14.5448C5.73677 14.9354 5.45663 15.1151 5.20732 15.3749C4.86697 15.7295 4.48747 16.0586 4.16235 16.4284C4.2738 16.527 4.37293 16.6456 4.48036 16.7494C4.70723 16.9688 4.92895 17.1843 5.14398 17.4158C5.30007 17.5846 5.4892 17.7401 5.62352 17.9265C5.79074 18.1585 5.77489 18.5152 5.5905 18.7334C5.44945 18.9002 5.30857 18.9685 5.09162 18.9903C4.65923 19.0063 4.48101 18.7082 4.20076 18.436C3.84808 18.0934 3.52144 17.7293 3.16718 17.3872C3.14508 17.4139 3.1221 17.4399 3.0983 17.4651C2.88655 17.6922 2.62898 17.9165 2.4058 18.1373C2.16046 18.3727 1.93516 18.6825 1.66306 18.8845C1.4049 19.0759 1.02472 19.0324 0.798972 18.8134C0.58073 18.6018 0.539326 18.2197 0.696509 17.9647C0.81945 17.7652 1.03553 17.5797 1.20087 17.412L2.1906 16.4184C2.08973 16.2972 1.93488 16.1433 1.82354 16.0277L1.09487 15.2771C1.0115 15.1906 0.757403 14.9506 0.710805 14.8581C0.455477 14.3512 0.732235 13.8673 1.26204 13.8088Z" fill="black"/>
<path d="M11.995 12.9421C12.1994 12.9495 12.3546 12.9903 12.4991 13.1505C12.5762 13.2364 12.6291 13.3413 12.6523 13.4544C12.69 13.6334 12.6828 14.1946 12.68 14.3985C12.675 14.7597 12.6896 15.1693 12.6734 15.5262L13.9945 15.5308C14.2316 15.5308 14.6209 15.5071 14.8289 15.5519C15.3423 15.6624 15.55 16.3339 15.1574 16.7048C14.886 16.9882 14.4499 16.9202 14.0728 16.9201C13.6229 16.9197 13.1353 16.9285 12.678 16.9222C12.6874 17.3641 12.6786 17.815 12.6803 18.2586C12.6681 18.5289 12.7021 18.8204 12.6601 19.0877C12.6109 19.4007 12.334 19.6005 12.0394 19.6326C12.0307 19.6328 12.022 19.633 12.0135 19.633C11.835 19.633 11.6639 19.5618 11.5383 19.4351C11.4768 19.3734 11.3879 19.2561 11.3745 19.1748C11.3326 18.92 11.3479 18.5855 11.3484 18.3244L11.3504 16.9249C10.872 16.9031 10.3805 16.9314 9.90114 16.9195C9.53377 16.9026 9.12351 16.9945 8.85002 16.6849C8.49091 16.3103 8.72452 15.5955 9.25444 15.5466C9.75373 15.5005 10.3061 15.5435 10.8128 15.5295C10.9806 15.525 11.1804 15.5258 11.3459 15.5388C11.3368 15.1251 11.3387 14.6997 11.3436 14.2857C11.3506 13.7035 11.2041 13.01 11.995 12.9421Z" fill="black"/>
<path d="M24 8.89345C23.9596 8.97011 23.9347 9.16047 23.9087 9.25307C23.7035 9.983 23.1445 10.6025 22.4235 10.8524C22.2704 10.906 22.1115 10.9409 21.95 10.9563C21.6172 10.9877 21.051 10.9658 20.7005 10.9689C20.4324 10.9713 19.867 10.9776 19.6287 10.9427C19.4041 10.909 19.186 10.8405 18.9826 10.7396C18.4039 10.4583 17.9926 9.99685 17.7856 9.38673C17.7314 9.23145 17.6957 9.07025 17.6796 8.90655C17.6493 8.59732 17.6719 8.09338 17.6701 7.76385C17.6684 7.45701 17.6492 6.8687 17.688 6.58348C17.7195 6.34984 17.7895 6.12303 17.895 5.91215C18.2477 5.19801 18.8875 4.75748 19.6901 4.66738C20.0451 4.62755 20.4412 4.6577 20.802 4.65132C21.215 4.66783 21.6962 4.59822 22.102 4.66959C22.843 4.79989 23.5712 5.36918 23.848 6.07206C23.916 6.24485 23.9407 6.40241 23.9962 6.56641L24 6.5772V8.89345ZM21.5947 9.59315C21.9285 9.59014 22.1087 9.57245 22.3632 9.32813C22.7723 8.94169 22.6448 8.38505 22.6632 7.88087C22.6742 7.58063 22.6563 7.27134 22.6673 6.96593C22.6819 6.55895 22.3988 6.10793 21.9806 6.02931C21.6336 5.96406 21.2396 6.01183 20.8846 5.99716C20.6194 5.99443 20.3066 5.98578 20.0519 5.99351C19.7239 6.00375 19.4881 6.03932 19.2478 6.29505C19.133 6.41911 19.0525 6.57082 19.014 6.73536C18.9594 6.97131 18.9846 7.5235 18.9873 7.78838C18.9925 8.31167 18.8705 8.94535 19.3068 9.32714C19.4293 9.43437 19.5773 9.5322 19.7393 9.57018C20.008 9.6287 20.3009 9.59174 20.5751 9.60038C20.9152 9.59999 21.256 9.59934 21.5947 9.59315Z" fill="black"/>
<path d="M0 10.1622C0.0337873 10.1104 0.0573594 10.0533 0.0834455 9.99753C0.23168 9.68043 0.373325 9.36013 0.523857 9.04412L2.09644 5.66955C2.19527 5.46169 2.29268 5.25317 2.38867 5.04399C2.46718 4.87281 2.53352 4.70895 2.63555 4.55355C2.8174 4.27655 3.24427 4.18356 3.51547 4.37789C3.78436 4.57055 3.95303 5.04904 4.09123 5.34706L4.68911 6.63918L5.64696 8.65594L6.05873 9.51852C6.12889 9.66537 6.31603 10.0275 6.34418 10.1703C6.37897 10.3458 6.34082 10.5278 6.2385 10.6745C6.13594 10.824 5.98145 10.933 5.80132 10.9653C5.61721 10.9969 5.42807 10.9547 5.27479 10.8479C5.07908 10.7092 4.94139 10.3364 4.84193 10.1183C4.7038 9.82043 4.57102 9.52014 4.44362 9.21754C4.17552 9.19459 3.8679 9.20083 3.59568 9.20118L2.46911 9.20084C2.31979 9.2009 2.03461 9.21163 1.89407 9.20041C1.77609 9.48811 1.63549 9.7833 1.50891 10.0683C1.42978 10.2465 1.32301 10.5347 1.20782 10.6838C1.12769 10.7865 1.02224 10.8666 0.901801 10.9162C0.739089 10.981 0.557067 10.9773 0.397151 10.9058C0.244507 10.8394 0.129298 10.7235 0.062591 10.5729C0.0495505 10.5434 0.0135061 10.462 0 10.4417V10.1622ZM2.5357 7.85298L3.18057 7.85221C3.37211 7.85179 3.59134 7.8464 3.78055 7.85543C3.57746 7.49404 3.41883 7.07138 3.22566 6.70152C3.20196 6.65616 3.18158 6.58936 3.13482 6.56604C2.97314 6.95285 2.77918 7.32599 2.60694 7.70765C2.58305 7.76059 2.56668 7.80301 2.5357 7.85298Z" fill="black"/>
<path d="M20.1823 15.5234C20.182 15.5119 20.1816 15.5003 20.1813 15.4888C20.1698 14.9217 20.189 14.349 20.179 13.7816C20.1743 13.5139 20.1874 13.3304 20.3806 13.1272C20.7101 12.7559 21.3954 12.9789 21.4897 13.4453C21.5249 13.6193 21.5062 13.9657 21.5058 14.1518C21.5032 14.6067 21.5038 15.0618 21.5079 15.5167C21.9329 15.5389 22.3941 15.5121 22.8235 15.5196C23.4224 15.53 23.7469 15.448 24 16.0922V16.322C23.975 16.3725 23.957 16.436 23.9314 16.4878C23.7953 16.7618 23.5488 16.8932 23.2474 16.8843C23.013 16.8772 22.7695 16.8908 22.534 16.8874C22.1988 16.8825 21.8407 16.9018 21.5064 16.879C21.4914 17.3429 21.5085 17.824 21.5024 18.2889C21.4997 18.4924 21.5198 18.8586 21.4813 19.0444C21.4536 19.1852 21.3858 19.3151 21.2861 19.4184C20.9841 19.7264 20.3392 19.6446 20.2075 19.1933C20.1531 19.007 20.1808 18.5775 20.1817 18.369C20.1818 17.8829 20.1863 17.397 20.1953 16.9109C19.7856 16.9042 19.3761 16.9015 18.9664 16.903C18.728 16.9031 18.434 16.9213 18.2029 16.8764C17.6729 16.7684 17.4885 16.1027 17.8598 15.7209C18.1104 15.4634 18.539 15.5237 18.8751 15.5227L20.1823 15.5234Z" fill="black"/>
</g>
<defs>
<clipPath id="clip0_4151_55229">
<rect width="24" height="24" fill="white"/>
</clipPath>
</defs>
</svg>
