<svg width="20" height="20" viewBox="0 0 20 20" fill="none" xmlns="http://www.w3.org/2000/svg">
<g clip-path="url(#clip0_4151_55103)">
<path d="M4.14627 0H11.8449C11.9094 0.0346989 12.031 0.0593416 12.1084 0.0968535C12.2032 0.142757 12.2689 0.1938 12.3445 0.267818C12.6812 0.597504 13.0163 0.934913 13.3468 1.27056L14.746 2.6729C15.2851 3.20593 15.8211 3.74207 16.3539 4.28128L16.8283 4.75698C17.0619 4.98887 17.2895 5.1684 17.3042 5.5287C17.3136 5.75602 17.308 5.98431 17.3079 6.2119L17.3089 7.58477L17.3117 14.6939L17.3162 17.3033C17.316 17.6674 17.3266 18.0334 17.3192 18.3964C17.3105 19.0564 16.7822 19.677 16.1716 19.8879C15.7768 20.0242 15.2268 19.9591 14.8068 19.9636C14.4624 19.9672 14.1139 19.9655 13.7696 19.9653L9.75017 19.9638L6.0205 19.9671L4.98474 19.9664C4.75454 19.9671 4.48939 19.9735 4.26097 19.9617C4.0555 19.9518 3.8543 19.8993 3.67017 19.8076C3.26025 19.6054 2.90515 19.2133 2.75804 18.7782C2.66111 18.4916 2.68282 18.1173 2.68501 17.8176L2.68789 17.123L2.68446 15.5346L2.68248 6.89245L2.67765 3.28636L2.67664 2.24907C2.67557 1.75909 2.6332 1.385 2.86622 0.932849C3.06528 0.546823 3.40098 0.24878 3.80787 0.0968385C3.90556 0.0596747 4.04052 0.033493 4.14627 0Z" fill="black"/>
<path d="M4.41049 1.3031C4.67177 1.29717 4.96786 1.30448 5.23152 1.30459L6.96138 1.30707L11.0334 1.3084C11.0302 1.99516 11.0308 2.68192 11.0351 3.36867V4.02113C11.035 4.29458 11.0253 4.55424 11.0894 4.82342C11.1585 5.10163 11.2983 5.35727 11.4953 5.56552C11.7406 5.82457 12.055 6.00789 12.4012 6.09377C12.7557 6.18233 13.3084 6.14399 13.6919 6.15068C14.4494 6.16389 15.2291 6.13501 15.9858 6.15252L15.9846 14.6592L15.9819 17.1051L15.9806 17.8643C15.9799 18.225 16.0655 18.6318 15.5763 18.6595L8.11129 18.6627L5.53235 18.6637C5.15187 18.6631 4.77062 18.6786 4.39035 18.6625C4.21407 18.655 4.03304 18.49 4.01753 18.3129C4.00087 18.1225 4.00625 17.9244 4.00622 17.733L4.00626 16.7304L4.00712 13.2628L4.00579 5.90676L4.00806 2.7649C4.00996 2.43247 4.00801 2.10081 4.00491 1.76841C4.00258 1.51679 4.14903 1.32178 4.41049 1.3031Z" fill="white"/>
<path d="M6.01635 3.02124C6.11036 3.00929 6.36934 3.01596 6.47633 3.0161L7.38489 3.01732L8.58663 3.01545C8.81643 3.0147 9.0546 3.01017 9.28017 3.01935C9.58232 3.0424 9.82573 3.31948 9.82427 3.6199C9.82329 3.82429 9.82622 4.02549 9.82602 4.22597L9.82505 5.61426C9.82456 5.82939 9.82563 6.04451 9.82817 6.25962C9.82993 6.40655 9.83218 6.54895 9.82788 6.69609C9.8186 7.01331 9.61066 7.23 9.31171 7.31575C9.18556 7.33842 8.9843 7.32717 8.85225 7.32648L8.06694 7.3245L6.68513 7.32446C6.46606 7.32454 6.23267 7.33245 6.01499 7.32066C5.91503 7.30876 5.80386 7.26025 5.72431 7.20145C5.41443 6.9724 5.47872 6.54372 5.47893 6.20674L5.48102 5.10523L5.47983 4.11922C5.4791 3.93481 5.47182 3.73815 5.48602 3.55507C5.50863 3.26365 5.72459 3.05434 6.01635 3.02124Z" fill="black"/>
<path d="M6.77699 4.29688L8.52683 4.298L8.52676 5.44074C8.52674 5.58311 8.53501 5.88124 8.5226 6.01423C7.94321 6.0213 7.35251 6.01574 6.77222 6.0161C6.77866 5.44305 6.78025 4.86996 6.77699 4.29688Z" fill="white"/>
<path d="M6.80007 12.4167C7.38833 12.4032 8.01338 12.4132 8.60457 12.4138L11.6601 12.417L13.1988 12.4133C13.4515 12.413 13.7209 12.406 13.9721 12.4247C14.1052 12.4346 14.2403 12.5037 14.3367 12.597C14.467 12.7251 14.5413 12.8996 14.5435 13.0823C14.5464 13.3758 14.3516 13.6351 14.0702 13.7156C13.9223 13.7579 13.787 13.7521 13.635 13.7518L13.2275 13.7502L8.1522 13.7475L6.70553 13.7514C6.49355 13.7516 6.22151 13.7655 6.01857 13.744C5.4848 13.6873 5.26769 12.9932 5.63592 12.6187C5.8519 12.399 6.09479 12.4204 6.37041 12.4202C6.51364 12.4209 6.65687 12.4197 6.80007 12.4167Z" fill="black"/>
<path d="M9.98042 9.673L12.7488 9.67326L13.4627 9.67152C13.8006 9.66911 14.0822 9.61585 14.346 9.86151C14.6153 10.1122 14.6086 10.5432 14.3562 10.7964C14.2637 10.8896 14.1448 10.9521 14.0155 10.9754C13.8888 10.9969 13.6633 10.9907 13.5281 10.9907L12.7553 10.9898L10.0341 10.9887L7.25565 10.9889L6.47751 10.9902C6.33955 10.9905 6.11491 10.998 5.98623 10.9779C5.85583 10.9569 5.73531 10.8955 5.64173 10.8023C5.37356 10.5392 5.39088 10.1206 5.64154 9.85439C5.84601 9.63716 6.20559 9.67432 6.47981 9.6749L7.26112 9.67658L9.98042 9.673Z" fill="black"/>
<path d="M6.05055 15.2088C6.15401 15.2008 6.31784 15.2056 6.42544 15.2056L7.0558 15.2044L9.12999 15.2031L12.1289 15.203C12.6947 15.2018 13.2623 15.1994 13.8281 15.2015C13.9336 15.2094 14.0304 15.2011 14.1294 15.2431C14.5303 15.413 14.6731 15.885 14.4138 16.2431C14.2948 16.4075 14.1582 16.4693 13.9572 16.503C13.7955 16.5129 13.5716 16.5052 13.4052 16.5045L12.4654 16.5041L9.38733 16.5042L7.10693 16.5045L6.38951 16.5048C6.29074 16.5049 6.11875 16.5115 6.02848 16.5029C5.9109 16.492 5.79907 16.447 5.70679 16.3733C5.25101 16.0151 5.45091 15.2669 6.05055 15.2088Z" fill="black"/>
<path d="M12.3558 2.19019C12.4161 2.21197 13.1587 2.96806 13.2724 3.08124C13.665 3.46742 14.0554 3.85572 14.4438 4.24612C14.5079 4.31056 14.9856 4.77919 14.997 4.82017C14.8647 4.81248 14.613 4.8219 14.472 4.82213L13.332 4.82315C13.1535 4.8232 12.8866 4.83685 12.7251 4.80547C12.4076 4.74375 12.3228 4.39351 12.3523 4.11809C12.362 4.02756 12.3545 3.88588 12.3542 3.79696L12.3558 2.19019Z" fill="white"/>
</g>
<defs>
<clipPath id="clip0_4151_55103">
<rect width="20" height="20" fill="white"/>
</clipPath>
</defs>
</svg>
