<svg width="20" height="20" viewBox="0 0 20 20" fill="none" xmlns="http://www.w3.org/2000/svg">
<g clip-path="url(#clip0_4151_55179)">
<path d="M3.51986 0H12.3991C12.4313 0.0216753 12.4804 0.0353222 12.5183 0.0427367C12.7828 0.0944247 12.9473 0.306544 13.1358 0.492859L13.6859 1.03928L15.1915 2.53599L16.8991 4.22625C17.1024 4.42586 17.3047 4.62648 17.506 4.82812C17.6311 4.95332 17.9108 5.19957 17.9403 5.37403C17.9759 5.58465 17.9636 5.87725 17.9634 6.09729L17.9647 7.19982C17.9793 9.005 17.9796 10.8103 17.9654 12.6154L17.9751 16.573L17.9704 17.6515C17.9702 18.199 18.0202 18.6705 17.7131 19.1563C17.47 19.5409 17.1481 19.8103 16.7023 19.9329C16.6468 19.948 16.4732 19.9752 16.4342 20H3.54752C3.49907 19.9767 3.32958 19.9469 3.26695 19.9295C3.17987 19.9054 3.13092 19.8851 3.04754 19.8443C2.61383 19.6376 2.28196 19.2646 2.12717 18.8098C2.00596 18.4499 2.02836 18.1021 2.02806 17.7284L2.02965 16.9005L2.03104 15.0295L2.03293 8.26661L2.03094 3.85117L2.03049 2.44538C2.03039 2.19554 2.02658 1.93857 2.03269 1.69351C2.04979 1.00712 2.5166 0.347274 3.15813 0.1019C3.27035 0.058981 3.39293 0.0447086 3.50186 0.00648556L3.51986 0Z" fill="black"/>
<path d="M3.73129 1.16556C3.80029 1.15712 3.94513 1.16058 4.0193 1.16081L4.49682 1.16162L6.11809 1.16038L11.8062 1.16238L11.8058 3.4984L11.8051 4.16742C11.8049 4.37599 11.7951 4.60088 11.8386 4.80384C11.9074 5.1234 12.0446 5.40658 12.2734 5.6406C12.498 5.87426 12.7847 6.03873 13.0998 6.11459C13.3305 6.16905 13.5618 6.15989 13.7972 6.15939L14.3974 6.15868C15.1967 6.15808 16.0101 6.14483 16.8075 6.1551L16.8063 14.2634L16.8048 16.9673L16.804 17.7285C16.8058 18.2167 16.8888 18.7189 16.2791 18.8443C16.1049 18.8578 15.8327 18.8494 15.6509 18.8491L14.5112 18.8475L10.8616 18.8484L6.0675 18.8467L4.56814 18.8494C4.30039 18.85 4.03439 18.8522 3.76553 18.848C3.49288 18.8438 3.25341 18.6125 3.21583 18.3461C3.19742 18.2158 3.20259 18.0644 3.20218 17.9313L3.20007 17.2196L3.20616 13.973L3.20153 5.85969L3.2024 3.30577C3.20198 2.81443 3.20171 2.3217 3.20466 1.83044C3.20546 1.69707 3.2254 1.53296 3.30718 1.42332C3.43296 1.25472 3.52837 1.19431 3.73129 1.16556Z" fill="white"/>
<path d="M11.3346 9.95614C11.5064 9.95614 11.7428 9.9535 11.9102 9.97547C12.3147 10.034 12.7138 10.2101 13.0018 10.5045C13.3814 10.8923 13.507 11.2911 13.5084 11.8177L13.5078 12.9139C13.5074 13.2058 13.524 13.6509 13.4581 13.919C13.3752 14.2499 13.2031 14.5515 12.9605 14.7913C12.4003 15.3501 11.8659 15.3046 11.1475 15.3037C10.9952 15.3043 10.7731 15.3098 10.6247 15.2921C10.2378 15.2458 9.85853 15.0578 9.5809 14.7862C9.19835 14.412 9.00606 13.9688 8.97794 13.4378C8.969 13.2688 8.97621 13.0723 8.9771 12.9009C8.97783 12.6093 8.97677 12.3177 8.97395 12.0261C8.96975 11.2522 9.18889 10.6408 9.86566 10.2169C10.3442 9.91717 10.799 9.95897 11.3346 9.95614Z" fill="black"/>
<path d="M11.3745 11.0987C11.6654 11.0938 11.9243 11.0813 12.1501 11.3C12.3071 11.4527 12.3552 11.642 12.3552 11.8543C12.3565 12.316 12.3521 12.7796 12.3557 13.2411C12.358 13.5351 12.3675 13.737 12.1459 13.9589C11.9389 14.166 11.7578 14.1619 11.4855 14.1619L11.1108 14.1612C10.8115 14.1616 10.6111 14.1756 10.3707 13.9535C10.2108 13.8048 10.1458 13.5911 10.1465 13.3777C10.1483 12.942 10.1477 12.5076 10.1459 12.072C10.1453 11.9343 10.1378 11.7861 10.1686 11.6522C10.1999 11.5165 10.2677 11.3921 10.3648 11.2924C10.5578 11.0981 10.7714 11.1005 11.0239 11.101C11.1408 11.101 11.2576 11.1002 11.3745 11.0987Z" fill="white"/>
<path d="M5.14589 9.94451C5.18781 9.93953 5.24826 9.93855 5.29152 9.93835C5.64299 9.93757 5.99474 9.93357 6.34623 9.93748C6.64476 9.93894 6.8886 9.9239 7.18413 9.9908C8.37711 10.2605 8.73964 11.7717 7.96777 12.651C7.76237 12.885 7.43004 13.0615 7.10703 13.079L7.87467 13.86C8.04491 14.0308 8.22178 14.1915 8.37373 14.3808C8.64299 14.7164 8.42349 15.2139 8.01845 15.2914C7.83754 15.326 7.68315 15.2776 7.53414 15.1736C7.40467 15.0723 7.21972 14.8677 7.10114 14.7427L6.51352 14.1258C6.31083 13.9125 5.98534 13.6094 5.80962 13.3998L5.8198 14.3461C5.81997 14.5044 5.82534 14.6636 5.80667 14.8208C5.77984 15.0468 5.58093 15.2547 5.35692 15.2952C5.20282 15.3217 5.04454 15.2859 4.91681 15.1957C4.8141 15.1245 4.69631 14.9877 4.68286 14.8634C4.65449 14.6012 4.66764 14.2991 4.66686 14.032C4.66339 13.4714 4.66306 12.9107 4.66583 12.3501L4.66466 11.1134C4.66439 10.896 4.65993 10.6788 4.67131 10.4617C4.68595 10.1823 4.87278 9.98699 5.14589 9.94451Z" fill="black"/>
<path d="M5.83118 11.1115L6.43356 11.1098C6.54277 11.1095 6.75885 11.1017 6.85981 11.127C6.93679 11.146 7.00738 11.185 7.06446 11.24C7.15497 11.3279 7.18002 11.4262 7.18009 11.5473C7.18019 11.7038 7.13873 11.7782 7.0351 11.8853C6.85702 12.0269 6.70825 12.0208 6.49313 12.0199C6.27248 12.0189 6.05195 12.0172 5.83124 12.0132L5.83118 11.1115Z" fill="white"/>
<path d="M14.6748 9.91457C14.9438 9.88674 15.2782 10.0762 15.3253 10.3583C15.3603 10.5678 15.3441 10.852 15.3444 11.0697L15.3455 12.3224V13.9017C15.3466 14.1955 15.3552 14.4894 15.344 14.783C15.3328 15.0781 15.1232 15.2607 14.8431 15.303C14.5576 15.3098 14.2206 15.1035 14.1691 14.8263C14.1243 14.5853 14.1431 14.1607 14.1434 13.9074L14.1458 12.3048L14.1421 11.0951C14.1406 10.8911 14.1291 10.6785 14.1397 10.4756C14.1573 10.1358 14.3616 9.96672 14.6748 9.91457Z" fill="black"/>
<path d="M12.9522 1.96753C12.9547 1.96938 12.9573 1.97124 12.9598 1.9731C13.2411 2.2483 13.5554 2.54438 13.8307 2.81988L15.4763 4.46408C15.549 4.53606 16.0234 4.98067 16.0303 5.02804L14.2615 5.02669C14.0969 5.02686 13.5455 5.03822 13.4033 5.01502C13.3046 4.99992 13.2128 4.9556 13.1397 4.88775C12.9455 4.70861 12.9501 4.47685 12.9501 4.23312C12.9502 4.0868 12.9495 3.93987 12.9495 3.79348L12.9508 2.65206C12.9517 2.42777 12.9582 2.18989 12.9522 1.96753Z" fill="white"/>
</g>
<defs>
<clipPath id="clip0_4151_55179">
<rect width="20" height="20" fill="white"/>
</clipPath>
</defs>
</svg>
