<svg width="20" height="20" viewBox="0 0 20 20" fill="none" xmlns="http://www.w3.org/2000/svg">
<g clip-path="url(#clip0_4151_55136)">
<path d="M3.66003 0.0724991L3.6683 0.0719528C3.85621 0.0604296 4.08248 0.0660143 4.2733 0.0662938L5.23029 0.0671875L8.29398 0.0672683L10.7432 0.0675244L11.4627 0.0674372C12.236 0.0670574 12.1511 0.0808715 12.6853 0.616458L13.2825 1.21124L15.0226 2.93925L16.5591 4.4759L17.046 4.95191C17.1301 5.03298 17.2804 5.17048 17.3501 5.25455C17.4202 5.33968 17.4606 5.44525 17.4655 5.55539C17.479 5.81006 17.4627 6.19755 17.4624 6.46567L17.4615 8.40416L17.4591 14.1949V17.4877L17.4592 18.3656C17.4592 18.8378 17.4937 19.1473 17.15 19.5264C16.9384 19.7614 16.6416 19.902 16.3256 19.9167C16.0128 19.925 15.672 19.9188 15.3575 19.919L13.5193 19.9199L7.99875 19.9197L5.01622 19.918L4.10662 19.9164C3.65621 19.9158 3.31373 19.945 2.94874 19.6251C2.71538 19.4282 2.5623 19.1087 2.55001 18.8009C2.53691 18.4724 2.5487 18.127 2.54831 17.7944L2.54481 15.7012L2.54668 9.07183L2.54779 3.7248C2.54388 3.12993 2.54321 2.53504 2.54576 1.94015C2.54595 1.73177 2.53012 1.34226 2.54565 1.15749C2.56659 0.897425 2.67024 0.650894 2.84143 0.454003C3.06406 0.196825 3.33032 0.0961357 3.66003 0.0724991ZM3.66653 18.8081C4.6461 18.8237 5.649 18.809 6.6303 18.8101L12.7425 18.8115L14.9913 18.8097C15.4351 18.809 15.9214 18.7996 16.3613 18.8137L16.3665 9.91849L16.3664 7.48121L16.3658 6.58924C16.3654 6.44721 16.3702 6.26876 16.3631 6.13182C15.3016 6.12363 14.24 6.12104 13.1783 6.12406L12.3204 6.12441C12.0309 6.12466 11.7331 6.17466 11.5107 5.94464C11.3161 5.7433 11.364 5.48081 11.3634 5.21598L11.3614 4.32115L11.364 2.26823C11.3647 1.93106 11.3599 1.58589 11.3645 1.24958C11.3648 1.231 11.3653 1.21244 11.366 1.19387C11.1303 1.20366 10.8708 1.19849 10.6335 1.19826L9.34787 1.19624L5.50391 1.19745L4.25924 1.19691C4.14535 1.19694 3.75753 1.20824 3.67477 1.18412C3.65436 1.43288 3.66404 1.7293 3.66502 1.98369L3.66641 3.10602L3.66405 6.43805L3.66591 15.1303C3.66521 16.349 3.68098 17.5913 3.66653 18.8081ZM12.4681 4.9904C13.0228 4.97649 13.6214 4.99092 14.1817 4.98731C14.5575 4.98489 15.1172 4.97467 15.4836 4.99844C15.4725 4.96749 14.9419 4.45064 14.8814 4.39278C14.3362 3.86664 13.7975 3.33362 13.2657 2.79386C13.1644 2.69267 12.5399 2.03623 12.4682 2.01303C12.4606 2.59522 12.4588 3.17748 12.4628 3.7597C12.4638 4.16439 12.4585 4.58788 12.4681 4.9904Z" fill="black"/>
<path d="M7.87803 11.6934C8.14613 11.7005 8.42102 11.8841 8.45796 12.1612C8.48293 12.3483 8.47456 12.5539 8.47341 12.7437L8.4704 13.5663L8.47066 15.0979C8.4699 15.3436 8.47579 15.6234 8.46482 15.8653C8.66685 15.8814 9.04578 15.8685 9.26561 15.8738C9.25547 15.7479 9.26455 15.5018 9.26502 15.3653L9.26238 14.509C9.26233 14.2884 9.27022 14.0906 9.44001 13.9235C9.54378 13.8214 9.68724 13.7754 9.83113 13.778C9.98425 13.7801 10.1298 13.8446 10.2341 13.9567C10.309 14.0367 10.3608 14.1355 10.3842 14.2427C10.4224 14.4157 10.406 14.8614 10.4042 15.0587C10.4017 15.3164 10.4032 15.6041 10.3948 15.861C10.7127 15.875 11.079 15.8644 11.3999 15.8639L13.1177 15.8634L13.7263 15.8623C13.8772 15.8621 14.0239 15.8578 14.1739 15.8781C14.4267 15.9125 14.6282 16.1533 14.6298 16.4072C14.63 16.5548 14.5719 16.6964 14.4682 16.8013C14.2731 16.9989 14.0296 16.9611 13.7727 16.9598L13.2763 16.9589L11.2353 16.9564L7.62394 16.9606L6.43168 16.9639C6.23794 16.9634 6.03278 16.9709 5.84067 16.951C5.71383 16.9385 5.64928 16.9035 5.55908 16.8179C5.36808 16.6367 5.40113 16.4235 5.40079 16.1834L5.40022 15.5653L5.39942 13.4597C5.40064 13.2401 5.41052 13.0978 5.57533 12.9395C5.79827 12.7254 6.17392 12.7451 6.37859 12.9744C6.54359 13.1592 6.51855 13.3888 6.51742 13.6185C6.51618 13.7951 6.51591 13.9718 6.51661 14.1484L6.51732 15.1812C6.51775 15.3982 6.52362 15.6468 6.51299 15.861C6.78458 15.8653 7.09069 15.8541 7.35767 15.8699C7.34322 15.7145 7.35317 15.3741 7.35299 15.2072L7.35304 13.8515L7.35169 12.7634C7.35147 12.5784 7.34542 12.3869 7.35747 12.2027C7.37625 11.9155 7.59329 11.7198 7.87803 11.6934Z" fill="black"/>
<path d="M6.6342 3.25488C6.77115 3.25467 6.90803 3.3076 7.00484 3.40508C7.17141 3.57279 7.13638 3.87919 7.13151 4.1019C7.44506 4.13431 7.64373 4.20839 7.89698 4.40491C8.17577 4.62124 8.56423 5.24922 8.2868 5.57525C8.20515 5.67178 8.08822 5.73155 7.96217 5.74121C7.77014 5.75576 7.60149 5.63062 7.51664 5.4689C7.45081 5.32781 7.4224 5.19421 7.2923 5.0925C7.22526 5.03297 7.06122 4.99788 6.96938 5.00485C6.65741 5.02856 6.20848 4.9041 6.00102 5.19911C5.8059 5.47658 5.95231 5.84432 6.25841 5.94705C6.37395 5.98583 6.51596 5.96904 6.63539 5.97289C7.05873 5.96288 7.46795 5.9556 7.81991 6.23116C8.12159 6.45971 8.31862 6.75536 8.3757 7.13564C8.43445 7.52535 8.33772 7.92253 8.10638 8.24159C7.86653 8.56459 7.50774 8.77858 7.10956 8.83611C7.09793 8.97976 7.11305 9.127 7.09576 9.26944C7.07137 9.47024 6.9165 9.60517 6.72517 9.6428C6.70218 9.64482 6.6791 9.64584 6.65601 9.64588C6.60375 9.64595 6.54654 9.63157 6.49885 9.61046C6.16994 9.46485 6.22006 9.12507 6.22636 8.83186L6.21776 8.83065C5.60938 8.74854 5.0805 8.22645 4.99709 7.6194C4.92663 7.10664 5.58511 6.89225 5.84798 7.2997C5.95836 7.47079 5.89686 7.62559 6.08173 7.78266C6.14076 7.83297 6.21091 7.86854 6.28639 7.88641C6.44723 7.92477 6.81285 7.90066 6.98972 7.89924C7.47962 7.89526 7.66079 7.10943 7.17712 6.93117C7.05904 6.88766 6.82466 6.89783 6.69393 6.90184C6.22547 6.91617 5.89096 6.89115 5.50934 6.59041C5.22369 6.36287 5.03943 6.03175 4.99666 5.66905C4.95273 5.28507 5.03468 4.90736 5.27964 4.60309C5.54124 4.27814 5.82284 4.14578 6.22916 4.10052C6.22524 3.75665 6.16319 3.30189 6.6342 3.25488Z" fill="black"/>
<path d="M8.81443 9.93471C9.16896 9.90561 9.31679 10.127 9.54023 10.355C9.66569 10.4823 9.79189 10.6086 9.91884 10.7343L11.9586 12.7607C12.1362 12.9339 12.3162 13.1053 12.487 13.2854C12.5391 13.3404 12.5903 13.3973 12.6499 13.4442C12.7663 13.4577 12.9562 13.4515 13.0792 13.451L13.7599 13.4488C13.9361 13.4483 14.2031 13.4295 14.3517 13.5287C14.7866 13.8189 14.6762 14.459 14.1478 14.5582C13.8189 14.5842 13.4168 14.5618 13.0785 14.569C12.831 14.5649 12.5764 14.5801 12.3306 14.5569C12.0303 14.5285 11.8014 14.2174 11.6009 14.0149L10.5744 12.9701C10.2356 12.6299 9.88115 12.2643 9.53617 11.9335L8.84241 11.2568C8.72655 11.1416 8.60117 11.0218 8.49209 10.902C8.40586 10.8048 8.35174 10.7333 8.33049 10.6022C8.27806 10.279 8.48476 9.98393 8.81443 9.93471Z" fill="black"/>
</g>
<defs>
<clipPath id="clip0_4151_55136">
<rect width="20" height="20" fill="white"/>
</clipPath>
</defs>
</svg>
